<svg xmlns="http://www.w3.org/2000/svg" xmlns:xlink="http://www.w3.org/1999/xlink" width="2000" zoomAndPan="magnify" viewBox="0 0 1500 1499.999933" height="2000" preserveAspectRatio="xMidYMid meet" version="1.0"><defs><g/><clipPath id="90fa0f6e97"><path d="M 216.738281 187.085938 L 1221.84375 187.085938 L 1221.84375 1192.191406 L 216.738281 1192.191406 Z M 216.738281 187.085938 " clip-rule="nonzero"/></clipPath><clipPath id="3f05a7361c"><path d="M 719.292969 187.085938 C 441.738281 187.085938 216.738281 412.085938 216.738281 689.640625 C 216.738281 967.191406 441.738281 1192.191406 719.292969 1192.191406 C 996.84375 1192.191406 1221.84375 967.191406 1221.84375 689.640625 C 1221.84375 412.085938 996.84375 187.085938 719.292969 187.085938 Z M 719.292969 187.085938 " clip-rule="nonzero"/></clipPath><clipPath id="6e31db24e1"><path d="M 0.738281 0.0859375 L 1005.84375 0.0859375 L 1005.84375 1005.191406 L 0.738281 1005.191406 Z M 0.738281 0.0859375 " clip-rule="nonzero"/></clipPath><clipPath id="d4e023deb9"><path d="M 503.292969 0.0859375 C 225.738281 0.0859375 0.738281 225.085938 0.738281 502.640625 C 0.738281 780.191406 225.738281 1005.191406 503.292969 1005.191406 C 780.84375 1005.191406 1005.84375 780.191406 1005.84375 502.640625 C 1005.84375 225.085938 780.84375 0.0859375 503.292969 0.0859375 Z M 503.292969 0.0859375 " clip-rule="nonzero"/></clipPath><clipPath id="a1d57b3ea1"><rect x="0" width="1006" y="0" height="1006"/></clipPath><clipPath id="6a8220c454"><path d="M 503.851562 542.210938 L 934.730469 542.210938 L 934.730469 973.085938 L 503.851562 973.085938 Z M 503.851562 542.210938 " clip-rule="nonzero"/></clipPath><clipPath id="9f131c7421"><path d="M 719.292969 542.210938 C 600.308594 542.210938 503.851562 638.664062 503.851562 757.648438 C 503.851562 876.632812 600.308594 973.085938 719.292969 973.085938 C 838.273438 973.085938 934.730469 876.632812 934.730469 757.648438 C 934.730469 638.664062 838.273438 542.210938 719.292969 542.210938 Z M 719.292969 542.210938 " clip-rule="nonzero"/></clipPath><clipPath id="387a645967"><path d="M 0.851562 0.210938 L 431.730469 0.210938 L 431.730469 431.085938 L 0.851562 431.085938 Z M 0.851562 0.210938 " clip-rule="nonzero"/></clipPath><clipPath id="009508f193"><path d="M 216.292969 0.210938 C 97.308594 0.210938 0.851562 96.664062 0.851562 215.648438 C 0.851562 334.632812 97.308594 431.085938 216.292969 431.085938 C 335.273438 431.085938 431.730469 334.632812 431.730469 215.648438 C 431.730469 96.664062 335.273438 0.210938 216.292969 0.210938 Z M 216.292969 0.210938 " clip-rule="nonzero"/></clipPath><clipPath id="e651f0291b"><rect x="0" width="432" y="0" height="432"/></clipPath><clipPath id="2158faebb8"><path d="M 266 416.296875 L 1173 416.296875 L 1173 972.796875 L 266 972.796875 Z M 266 416.296875 " clip-rule="nonzero"/></clipPath><clipPath id="c583dbea99"><path d="M 557.285156 595.644531 L 881.296875 595.644531 L 881.296875 919.652344 L 557.285156 919.652344 Z M 557.285156 595.644531 " clip-rule="nonzero"/></clipPath><clipPath id="c0201c3d67"><path d="M 719.292969 595.644531 C 629.820312 595.644531 557.285156 668.175781 557.285156 757.648438 C 557.285156 847.121094 629.820312 919.652344 719.292969 919.652344 C 808.765625 919.652344 881.296875 847.121094 881.296875 757.648438 C 881.296875 668.175781 808.765625 595.644531 719.292969 595.644531 Z M 719.292969 595.644531 " clip-rule="nonzero"/></clipPath><clipPath id="12ad37a7eb"><path d="M 0.285156 0.644531 L 324.296875 0.644531 L 324.296875 324.652344 L 0.285156 324.652344 Z M 0.285156 0.644531 " clip-rule="nonzero"/></clipPath><clipPath id="2b092c381d"><path d="M 162.292969 0.644531 C 72.820312 0.644531 0.285156 73.175781 0.285156 162.648438 C 0.285156 252.121094 72.820312 324.652344 162.292969 324.652344 C 251.765625 324.652344 324.296875 252.121094 324.296875 162.648438 C 324.296875 73.175781 251.765625 0.644531 162.292969 0.644531 Z M 162.292969 0.644531 " clip-rule="nonzero"/></clipPath><clipPath id="1ba3d77c22"><rect x="0" width="325" y="0" height="325"/></clipPath><clipPath id="6c7a979f1c"><rect x="0" width="347" y="0" height="106"/></clipPath><clipPath id="69e2be2842"><rect x="0" width="239" y="0" height="165"/></clipPath></defs><g clip-path="url(#90fa0f6e97)"><g clip-path="url(#3f05a7361c)"><g transform="matrix(1, 0, 0, 1, 216, 187)"><g clip-path="url(#a1d57b3ea1)"><g clip-path="url(#6e31db24e1)"><g clip-path="url(#d4e023deb9)"><path fill="#e8e5de" d="M 0.738281 0.0859375 L 1005.84375 0.0859375 L 1005.84375 1005.191406 L 0.738281 1005.191406 Z M 0.738281 0.0859375 " fill-opacity="1" fill-rule="nonzero"/></g></g></g></g></g></g><g clip-path="url(#6a8220c454)"><g clip-path="url(#9f131c7421)"><g transform="matrix(1, 0, 0, 1, 503, 542)"><g clip-path="url(#e651f0291b)"><g clip-path="url(#387a645967)"><g clip-path="url(#009508f193)"><path fill="#e8e5de" d="M 0.851562 0.210938 L 431.730469 0.210938 L 431.730469 431.085938 L 0.851562 431.085938 Z M 0.851562 0.210938 " fill-opacity="1" fill-rule="nonzero"/></g></g></g></g></g></g><g clip-path="url(#2158faebb8)"><path fill="#d8c69d" d="M 719.742188 564.382812 C 825.726562 564.382812 911.746094 650.40625 911.746094 756.390625 C 911.746094 862.375 825.726562 948.394531 719.742188 948.394531 C 613.757812 948.394531 527.734375 862.375 527.734375 756.390625 C 527.734375 650.40625 613.757812 564.382812 719.742188 564.382812 Z M 719.742188 539.703125 C 839.335938 539.703125 936.429688 636.796875 936.429688 756.390625 C 936.429688 875.984375 839.515625 973.078125 719.742188 973.078125 C 600.144531 973.078125 503.054688 876.167969 503.054688 756.390625 C 503.054688 636.796875 600.144531 539.703125 719.742188 539.703125 Z M 1172.535156 642.601562 C 1164.183594 584.347656 1113.734375 539.160156 1053.300781 539.160156 L 876.722656 539.160156 C 881.984375 546.78125 886.882812 554.765625 891.058594 563.113281 L 1053.484375 563.113281 C 1099.761719 563.113281 1138.777344 596.144531 1148.035156 639.878906 C 1156.382812 640.425781 1164.546875 641.332031 1172.535156 642.601562 Z M 386.179688 563.113281 L 548.605469 563.113281 C 552.777344 554.765625 557.496094 546.78125 562.941406 539.160156 L 386.179688 539.160156 C 322.660156 539.160156 270.214844 588.882812 266.039062 651.3125 L 289.996094 651.3125 C 294.351562 602.132812 335.910156 563.113281 386.179688 563.113281 Z M 393.800781 496.328125 L 459.316406 496.328125 L 459.316406 515.203125 C 464.941406 515.203125 470.386719 515.746094 475.832031 516.292969 L 475.832031 479.996094 L 377.46875 479.996094 L 377.46875 515.382812 L 393.984375 515.382812 L 393.984375 496.328125 Z M 896.140625 515.203125 L 886.882812 492.519531 C 882.164062 481.085938 870.550781 447.875 859.480469 441.703125 C 857.664062 440.796875 855.851562 440.433594 853.855469 440.433594 L 585.625 440.433594 C 583.628906 440.433594 581.816406 440.796875 580 441.703125 C 568.929688 447.875 557.316406 481.085938 552.597656 492.519531 L 543.339844 515.382812 L 517.390625 515.382812 L 530.273438 483.445312 C 544.25 449.324219 555.136719 416.296875 585.445312 416.296875 L 853.671875 416.296875 C 883.980469 416.296875 894.867188 449.144531 908.84375 483.445312 L 921.910156 515.382812 L 896.140625 515.382812 Z M 959.476562 586.886719 L 959.476562 632.257812 L 1040.960938 632.257812 L 1040.960938 586.886719 Z M 973.8125 601.226562 L 1026.804688 601.226562 L 1026.804688 617.921875 L 973.8125 617.921875 Z M 973.8125 601.226562 " fill-opacity="1" fill-rule="evenodd"/></g><g clip-path="url(#c583dbea99)"><g clip-path="url(#c0201c3d67)"><g transform="matrix(1, 0, 0, 1, 557, 595)"><g clip-path="url(#1ba3d77c22)"><g clip-path="url(#12ad37a7eb)"><g clip-path="url(#2b092c381d)"><path fill="#d8c69d" d="M 0.285156 0.644531 L 324.296875 0.644531 L 324.296875 324.652344 L 0.285156 324.652344 Z M 0.285156 0.644531 " fill-opacity="1" fill-rule="nonzero"/></g></g></g></g></g></g><g transform="matrix(1, 0, 0, 1, 546, 444)"><g clip-path="url(#6c7a979f1c)"><g fill="#000000" fill-opacity="1"><g transform="translate(25.154566, 93.70711)"><g><path d="M -2.671875 -18.40625 L 4.171875 -22.609375 C 5.867188 -23.640625 6.90625 -25.070312 7.28125 -26.90625 C 7.707031 -28.75 7.394531 -30.53125 6.34375 -32.25 C 5.28125 -33.988281 3.875 -35.078125 2.125 -35.515625 C 0.382812 -35.960938 -1.375 -35.640625 -3.15625 -34.546875 L -10 -30.34375 Z M 9.40625 -34.03125 C 10.976562 -31.46875 11.378906 -28.773438 10.609375 -25.953125 C 9.835938 -23.191406 8.144531 -21.003906 5.53125 -19.390625 L -0.875 -15.46875 L 6.265625 -3.84375 L 3.234375 -1.984375 L -14.796875 -31.375 L -5.359375 -37.15625 C -2.773438 -38.75 -0.0664062 -39.28125 2.765625 -38.75 C 5.597656 -38.195312 7.8125 -36.625 9.40625 -34.03125 Z M 9.40625 -34.03125 "/></g></g></g><g fill="#000000" fill-opacity="1"><g transform="translate(67.995098, 70.179764)"><g><path d="M 6.796875 -2.8125 L 3.5 -1.453125 L -9.71875 -33.3125 L -6.421875 -34.671875 Z M 6.796875 -2.8125 "/></g></g></g><g fill="#000000" fill-opacity="1"><g transform="translate(98.768902, 58.26387)"><g><path d="M 32.328125 -17.953125 C 31.796875 -14.453125 30.320312 -11.410156 27.90625 -8.828125 C 25.488281 -6.179688 22.5625 -4.476562 19.125 -3.71875 C 14.46875 -2.695312 10.109375 -3.53125 6.046875 -6.21875 C 2.078125 -8.875 -0.429688 -12.5625 -1.484375 -17.28125 C -2.003906 -19.632812 -2.070312 -21.960938 -1.6875 -24.265625 C -1.28125 -26.523438 -0.492188 -28.613281 0.671875 -30.53125 C 3.210938 -34.695312 6.8125 -37.289062 11.46875 -38.3125 C 14.90625 -39.070312 18.253906 -38.800781 21.515625 -37.5 C 24.785156 -36.132812 27.40625 -33.992188 29.375 -31.078125 L 25.5625 -30.234375 C 23.007812 -33.160156 19.8125 -34.769531 15.96875 -35.0625 C 14.71875 -35.132812 13.3125 -35 11.75 -34.65625 C 10.195312 -34.3125 8.695312 -33.59375 7.25 -32.5 C 5.789062 -31.394531 4.601562 -30.078125 3.6875 -28.546875 C 1.707031 -25.304688 1.132812 -21.804688 1.96875 -18.046875 C 2.789062 -14.328125 4.785156 -11.410156 7.953125 -9.296875 C 11.179688 -7.128906 14.644531 -6.453125 18.34375 -7.265625 C 20.851562 -7.828125 23.015625 -9.003906 24.828125 -10.796875 C 26.609375 -12.578125 27.835938 -14.679688 28.515625 -17.109375 Z M 32.328125 -17.953125 "/></g></g></g><g fill="#000000" fill-opacity="1"><g transform="translate(156.301857, 48.40444)"><g><path d="M 0.3125 -31.296875 L 0.234375 -34.59375 L 8.609375 -34.796875 L 12.15625 -34.875 L 20.515625 -35.0625 L 20.59375 -31.765625 L 12.234375 -31.578125 L 12.9375 -0.390625 L 9.390625 -0.3125 L 8.6875 -31.5 Z M 0.3125 -31.296875 "/></g></g></g><g fill="#000000" fill-opacity="1"><g transform="translate(200.23708, 48.988984)"><g><path d="M 30.21875 -6.5625 C 29.613281 -2.894531 27.941406 -0.195312 25.203125 1.53125 C 22.585938 3.164062 19.394531 3.671875 15.625 3.046875 C 11.820312 2.421875 8.953125 0.914062 7.015625 -1.46875 C 4.972656 -3.988281 4.253906 -7.082031 4.859375 -10.75 L 8.609375 -33.53125 L 12.109375 -32.953125 L 8.28125 -9.6875 C 7.851562 -7.113281 8.460938 -4.992188 10.109375 -3.328125 C 11.515625 -1.847656 13.546875 -0.890625 16.203125 -0.453125 C 20.378906 0.234375 23.421875 -0.707031 25.328125 -3.28125 C 25.972656 -4.15625 26.410156 -5.28125 26.640625 -6.65625 L 30.46875 -29.921875 L 33.96875 -29.34375 Z M 30.21875 -6.5625 "/></g></g></g><g fill="#000000" fill-opacity="1"><g transform="translate(252.329881, 59.921123)"><g><path d="M 12.875 -13.359375 L 20.375 -10.546875 C 22.238281 -9.847656 24.007812 -9.90625 25.6875 -10.71875 C 27.414062 -11.5625 28.632812 -12.925781 29.34375 -14.8125 C 30.050781 -16.6875 30.050781 -18.457031 29.34375 -20.125 C 28.613281 -21.78125 27.269531 -22.972656 25.3125 -23.703125 L 17.8125 -26.515625 Z M 32.640625 -13.484375 C 31.578125 -10.660156 29.703125 -8.6875 27.015625 -7.5625 C 24.617188 -6.59375 22.144531 -6.492188 19.59375 -7.265625 L 24.6875 9.265625 L 20.234375 7.59375 L 15.578125 -8.71875 L 11.6875 -10.171875 L 6.890625 2.59375 L 3.546875 1.328125 L 15.671875 -30.953125 L 26.03125 -27.0625 C 28.914062 -25.976562 31.003906 -24.164062 32.296875 -21.625 C 33.566406 -18.96875 33.679688 -16.253906 32.640625 -13.484375 Z M 32.640625 -13.484375 "/></g></g></g><g fill="#000000" fill-opacity="1"><g transform="translate(297.589584, 79.062746)"><g><path d="M 20.734375 12.65625 L 3.234375 1.984375 L 21.203125 -27.453125 L 38.703125 -16.78125 L 36.984375 -13.96875 L 22.53125 -22.796875 L 16.140625 -12.328125 L 30.15625 -3.765625 L 28.40625 -0.90625 L 14.390625 -9.46875 L 8 1.015625 L 22.453125 9.84375 Z M 20.734375 12.65625 "/></g></g></g></g></g><g transform="matrix(1, 0, 0, 1, 603, 679)"><g clip-path="url(#69e2be2842)"><g fill="#000000" fill-opacity="1"><g transform="translate(0.482203, 98.350433)"><g><path d="M 126.140625 -86.953125 C 126.335938 -83.660156 126.164062 -79.3125 125.625 -73.90625 C 125.09375 -68.5 124.304688 -62.367188 123.265625 -55.515625 C 122.222656 -48.660156 121.015625 -41.421875 119.640625 -33.796875 C 118.265625 -26.171875 116.867188 -18.5 115.453125 -10.78125 C 114.515625 -5.40625 113.539062 0.0820312 112.53125 5.6875 C 111.53125 11.300781 110.609375 16.675781 109.765625 21.8125 C 108.921875 26.945312 108.265625 31.476562 107.796875 35.40625 C 107.328125 39.34375 107.128906 42.285156 107.203125 44.234375 C 107.460938 43.765625 107.765625 43.257812 108.109375 42.71875 C 108.367188 42.25 108.75 41.945312 109.25 41.8125 C 109.757812 41.675781 110.25 41.742188 110.71875 42.015625 C 111.1875 42.285156 111.488281 42.671875 111.625 43.171875 C 111.757812 43.671875 111.691406 44.15625 111.421875 44.625 C 110.617188 45.96875 109.75 47.191406 108.8125 48.296875 C 107.875 49.410156 106.765625 49.769531 105.484375 49.375 C 104.742188 49.03125 104.1875 48.300781 103.8125 47.1875 C 103.445312 46.082031 103.316406 44.269531 103.421875 41.75 C 103.523438 39.238281 103.878906 35.75 104.484375 31.28125 C 105.085938 26.8125 105.972656 21.082031 107.140625 14.09375 C 108.316406 7.113281 109.847656 -1.378906 111.734375 -11.390625 C 113.003906 -18.773438 114.3125 -26.226562 115.65625 -33.75 C 117 -41.269531 118.207031 -48.457031 119.28125 -55.3125 C 120.363281 -62.164062 121.1875 -68.3125 121.75 -73.75 C 122.320312 -79.1875 122.507812 -83.484375 122.3125 -86.640625 C 122.175781 -88.585938 121.90625 -90.015625 121.5 -90.921875 C 121.101562 -91.828125 120.703125 -92.316406 120.296875 -92.390625 C 120.296875 -92.390625 120.257812 -92.390625 120.1875 -92.390625 C 119.519531 -92.390625 118.347656 -91.664062 116.671875 -90.21875 C 114.992188 -88.78125 112.894531 -86.210938 110.375 -82.515625 C 107.851562 -78.816406 104.878906 -73.578125 101.453125 -66.796875 C 97.960938 -59.804688 93.628906 -49.847656 88.453125 -36.921875 C 83.285156 -23.992188 77.78125 -7.390625 71.9375 12.890625 C 71.601562 14.097656 70.832031 14.570312 69.625 14.3125 C 68.414062 14.039062 67.910156 13.300781 68.109375 12.09375 C 72.804688 -15.582031 75.320312 -36.375 75.65625 -50.28125 C 75.789062 -54.570312 75.722656 -57.941406 75.453125 -60.390625 C 75.191406 -62.847656 74.859375 -64.628906 74.453125 -65.734375 C 74.046875 -66.847656 73.691406 -67.554688 73.390625 -67.859375 C 73.085938 -68.160156 72.90625 -68.34375 72.84375 -68.40625 C 72.769531 -68.40625 72.445312 -68.304688 71.875 -68.109375 C 71.3125 -67.910156 70.425781 -67.238281 69.21875 -66.09375 C 68.007812 -64.945312 66.445312 -62.960938 64.53125 -60.140625 C 62.613281 -57.328125 60.3125 -53.332031 57.625 -48.15625 C 54.9375 -42.988281 51.78125 -36.273438 48.15625 -28.015625 C 44.46875 -19.484375 40.757812 -10.257812 37.03125 -0.34375 C 33.300781 9.5625 29.722656 19.71875 26.296875 30.125 C 22.867188 40.53125 19.742188 50.738281 16.921875 60.75 C 16.921875 60.75 16.921875 60.785156 16.921875 60.859375 C 16.453125 62.066406 15.960938 63.140625 15.453125 64.078125 C 14.953125 65.015625 14.300781 65.484375 13.5 65.484375 C 13.300781 65.484375 13.066406 65.453125 12.796875 65.390625 C 11.859375 65.054688 11.367188 64.332031 11.328125 63.21875 C 11.296875 62.113281 11.445312 60.382812 11.78125 58.03125 C 12.257812 54.875 13.066406 50.34375 14.203125 44.4375 C 16.222656 34.289062 19.179688 20.382812 23.078125 2.71875 C 24.816406 -5.40625 26.578125 -13.410156 28.359375 -21.296875 C 30.140625 -29.191406 31.800781 -36.515625 33.34375 -43.265625 C 34.894531 -50.015625 36.238281 -55.804688 37.375 -60.640625 C 38.519531 -65.484375 39.328125 -68.878906 39.796875 -70.828125 C 40.867188 -75.460938 41.421875 -78.972656 41.453125 -81.359375 C 41.492188 -83.742188 41.296875 -85.40625 40.859375 -86.34375 C 40.421875 -87.28125 40.066406 -87.851562 39.796875 -88.0625 C 39.054688 -88.53125 37.929688 -88.460938 36.421875 -87.859375 C 34.910156 -87.253906 33.179688 -86.210938 31.234375 -84.734375 C 28.609375 -82.710938 25.921875 -80.085938 23.171875 -76.859375 C 20.421875 -73.640625 17.816406 -70.113281 15.359375 -66.28125 C 12.910156 -62.457031 10.828125 -58.582031 9.109375 -54.65625 C 7.398438 -50.726562 6.226562 -46.945312 5.59375 -43.3125 C 4.957031 -39.6875 5.109375 -36.5 6.046875 -33.75 C 7.992188 -27.976562 13.566406 -25.023438 22.765625 -24.890625 C 23.304688 -24.890625 23.757812 -24.6875 24.125 -24.28125 C 24.5 -23.875 24.6875 -23.40625 24.6875 -22.875 C 24.6875 -22.332031 24.484375 -21.875 24.078125 -21.5 C 23.671875 -21.132812 23.234375 -20.953125 22.765625 -20.953125 C 22.765625 -20.953125 22.75 -20.953125 22.71875 -20.953125 C 22.6875 -20.953125 22.671875 -20.953125 22.671875 -20.953125 C 20.179688 -21.023438 17.554688 -21.378906 14.796875 -22.015625 C 12.046875 -22.648438 9.546875 -23.789062 7.296875 -25.4375 C 5.046875 -27.082031 3.382812 -29.453125 2.3125 -32.546875 C 1.507812 -35.023438 1.191406 -37.640625 1.359375 -40.390625 C 1.523438 -43.148438 2.007812 -45.890625 2.8125 -48.609375 C 3.625 -51.328125 4.550781 -53.878906 5.59375 -56.265625 C 6.632812 -58.648438 7.625 -60.71875 8.5625 -62.46875 C 11.3125 -67.5 14.5 -72.296875 18.125 -76.859375 C 21.757812 -81.429688 25.359375 -85.097656 28.921875 -87.859375 C 32.335938 -90.472656 35.085938 -91.863281 37.171875 -92.03125 C 39.253906 -92.195312 40.832031 -91.945312 41.90625 -91.28125 C 45.800781 -88.789062 46.34375 -81.671875 43.53125 -69.921875 C 42.789062 -66.828125 41.832031 -62.742188 40.65625 -57.671875 C 39.476562 -52.609375 38.164062 -46.882812 36.71875 -40.5 C 35.28125 -34.125 33.753906 -27.390625 32.140625 -20.296875 C 30.523438 -13.210938 28.925781 -6.097656 27.34375 1.046875 C 25.769531 8.203125 24.257812 15.125 22.8125 21.8125 C 21.375 28.5 20.117188 34.59375 19.046875 40.09375 C 21.597656 31.96875 24.28125 23.84375 27.09375 15.71875 C 29.914062 7.59375 32.804688 -0.296875 35.765625 -7.953125 C 38.722656 -15.609375 41.675781 -22.832031 44.625 -29.625 C 48.519531 -38.550781 51.945312 -45.785156 54.90625 -51.328125 C 57.863281 -56.867188 60.414062 -61.117188 62.5625 -64.078125 C 64.71875 -67.035156 66.53125 -69.082031 68 -70.21875 C 69.476562 -71.363281 70.671875 -72.003906 71.578125 -72.140625 C 72.484375 -72.273438 73.207031 -72.273438 73.75 -72.140625 C 74.6875 -71.929688 75.59375 -71.320312 76.46875 -70.3125 C 77.34375 -69.3125 78.0625 -67.617188 78.625 -65.234375 C 79.195312 -62.847656 79.535156 -59.488281 79.640625 -55.15625 C 79.742188 -50.820312 79.507812 -45.265625 78.9375 -38.484375 C 78.363281 -31.703125 77.40625 -23.375 76.0625 -13.5 C 80.164062 -25.925781 84.316406 -37.257812 88.515625 -47.5 C 92.710938 -57.75 96.789062 -66.550781 100.75 -73.90625 C 104.707031 -81.257812 108.398438 -86.882812 111.828125 -90.78125 C 115.253906 -94.675781 118.242188 -96.488281 120.796875 -96.21875 C 123.953125 -95.882812 125.734375 -92.796875 126.140625 -86.953125 Z M 126.140625 -86.953125 "/></g></g></g><g fill="#000000" fill-opacity="1"><g transform="translate(128.138102, 98.350433)"><g><path d="M 107.90625 -97.21875 C 108.4375 -97.21875 108.882812 -97.03125 109.25 -96.65625 C 109.625 -96.289062 109.8125 -95.84375 109.8125 -95.3125 C 109.8125 -94.769531 109.625 -94.3125 109.25 -93.9375 C 108.882812 -93.570312 108.4375 -93.390625 107.90625 -93.390625 C 102.726562 -93.328125 96.816406 -92.910156 90.171875 -92.140625 C 83.523438 -91.367188 76.65625 -90.359375 69.5625 -89.109375 C 62.476562 -87.867188 55.644531 -86.410156 49.0625 -84.734375 C 48.050781 -80.503906 46.890625 -75.851562 45.578125 -70.78125 C 44.273438 -65.707031 42.882812 -60.414062 41.40625 -54.90625 C 40.394531 -50.875 39.316406 -46.691406 38.171875 -42.359375 C 37.035156 -38.023438 35.929688 -33.675781 34.859375 -29.3125 C 39.492188 -30.519531 44.160156 -31.675781 48.859375 -32.78125 C 53.566406 -33.894531 57.984375 -34.867188 62.109375 -35.703125 C 66.242188 -36.546875 69.804688 -37.1875 72.796875 -37.625 C 75.785156 -38.0625 77.882812 -38.25 79.09375 -38.1875 C 79.625 -38.113281 80.054688 -37.890625 80.390625 -37.515625 C 80.734375 -37.148438 80.90625 -36.703125 80.90625 -36.171875 C 80.832031 -35.628906 80.609375 -35.171875 80.234375 -34.796875 C 79.867188 -34.429688 79.421875 -34.25 78.890625 -34.25 C 77.546875 -34.382812 74.992188 -34.132812 71.234375 -33.5 C 67.472656 -32.863281 62.972656 -31.988281 57.734375 -30.875 C 52.492188 -29.769531 46.953125 -28.476562 41.109375 -27 C 38.554688 -26.332031 36.101562 -25.695312 33.75 -25.09375 C 32 -17.96875 30.382812 -11.0625 28.90625 -4.375 C 27.4375 2.300781 26.226562 8.476562 25.28125 14.15625 C 24.34375 19.832031 23.84375 24.617188 23.78125 28.515625 C 23.78125 30.128906 23.929688 31.753906 24.234375 33.390625 C 24.535156 35.035156 25.222656 36.097656 26.296875 36.578125 C 27.566406 37.109375 29.257812 36.90625 31.375 35.96875 C 33.5 35.03125 35.867188 33.585938 38.484375 31.640625 C 41.109375 29.691406 43.796875 27.503906 46.546875 25.078125 C 49.296875 22.660156 51.960938 20.207031 54.546875 17.71875 C 57.140625 15.238281 59.441406 13.023438 61.453125 11.078125 C 61.992188 10.546875 62.53125 10.023438 63.0625 9.515625 C 63.601562 9.015625 64.109375 8.492188 64.578125 7.953125 L 66.296875 6.34375 C 67.304688 5.40625 68.28125 4.484375 69.21875 3.578125 C 70.15625 2.671875 70.992188 1.878906 71.734375 1.203125 C 72.742188 0.265625 73.679688 -0.488281 74.546875 -1.0625 C 75.421875 -1.632812 76.226562 -1.550781 76.96875 -0.8125 C 77.84375 -0.0703125 77.941406 0.898438 77.265625 2.109375 C 76.597656 3.316406 75.289062 5.234375 73.34375 7.859375 C 73.007812 8.328125 72.570312 8.59375 72.03125 8.65625 C 71.5 8.726562 71.03125 8.597656 70.625 8.265625 C 70.488281 8.191406 70.351562 8.085938 70.21875 7.953125 C 70.019531 8.160156 69.816406 8.363281 69.609375 8.5625 C 69.410156 8.757812 69.210938 8.960938 69.015625 9.171875 L 67.296875 10.78125 C 66.828125 11.25 66.320312 11.75 65.78125 12.28125 C 65.25 12.820312 64.710938 13.328125 64.171875 13.796875 C 59.140625 18.703125 54.375 23.1875 49.875 27.25 C 45.375 31.3125 41.222656 34.566406 37.421875 37.015625 C 33.628906 39.472656 30.359375 40.703125 27.609375 40.703125 C 26.535156 40.703125 25.59375 40.5 24.78125 40.09375 C 21.425781 38.6875 19.816406 34.828125 19.953125 28.515625 C 20.015625 24.546875 20.484375 19.820312 21.359375 14.34375 C 22.234375 8.875 23.375 2.882812 24.78125 -3.625 C 26.195312 -10.144531 27.742188 -16.894531 29.421875 -23.875 C 22.503906 -21.925781 17.128906 -20.226562 13.296875 -18.78125 C 9.472656 -17.34375 7.191406 -16.285156 6.453125 -15.609375 C 6.109375 -15.273438 5.671875 -15.109375 5.140625 -15.109375 C 4.597656 -15.109375 4.128906 -15.3125 3.734375 -15.71875 C 3.390625 -16.050781 3.21875 -16.484375 3.21875 -17.015625 C 3.21875 -17.554688 3.421875 -18.03125 3.828125 -18.4375 C 4.628906 -19.238281 6.320312 -20.175781 8.90625 -21.25 C 11.5 -22.332031 14.675781 -23.457031 18.4375 -24.625 C 22.195312 -25.800781 26.226562 -26.992188 30.53125 -28.203125 C 31.664062 -32.835938 32.851562 -37.488281 34.09375 -42.15625 C 35.34375 -46.832031 36.539062 -51.421875 37.6875 -55.921875 C 39.03125 -60.953125 40.304688 -65.816406 41.515625 -70.515625 C 42.722656 -75.222656 43.828125 -79.59375 44.828125 -83.625 C 38.921875 -82.007812 33.53125 -80.3125 28.65625 -78.53125 C 23.789062 -76.75 19.8125 -74.914062 16.71875 -73.03125 C 13.632812 -71.15625 11.820312 -69.28125 11.28125 -67.40625 C 11.144531 -67.132812 11.144531 -66.523438 11.28125 -65.578125 C 11.414062 -64.640625 12.523438 -63.46875 14.609375 -62.0625 C 15.015625 -61.726562 15.265625 -61.304688 15.359375 -60.796875 C 15.460938 -60.296875 15.378906 -59.8125 15.109375 -59.34375 C 14.710938 -58.800781 14.175781 -58.53125 13.5 -58.53125 C 13.09375 -58.53125 12.722656 -58.632812 12.390625 -58.84375 C 9.703125 -60.65625 8.140625 -62.414062 7.703125 -64.125 C 7.265625 -65.84375 7.21875 -67.304688 7.5625 -68.515625 C 8.226562 -70.660156 9.785156 -72.671875 12.234375 -74.546875 C 14.691406 -76.429688 17.75 -78.179688 21.40625 -79.796875 C 25.070312 -81.410156 29.019531 -82.90625 33.25 -84.28125 C 37.476562 -85.65625 41.675781 -86.878906 45.84375 -87.953125 C 46.25 -89.628906 46.582031 -91.070312 46.84375 -92.28125 C 46.914062 -92.820312 47.1875 -93.226562 47.65625 -93.5 C 48.125 -93.769531 48.59375 -93.867188 49.0625 -93.796875 C 49.601562 -93.660156 50.023438 -93.375 50.328125 -92.9375 C 50.628906 -92.5 50.710938 -92.015625 50.578125 -91.484375 C 50.441406 -90.804688 50.273438 -89.96875 50.078125 -88.96875 C 56.585938 -90.570312 63.351562 -91.976562 70.375 -93.1875 C 77.394531 -94.394531 84.144531 -95.351562 90.625 -96.0625 C 97.101562 -96.769531 102.863281 -97.15625 107.90625 -97.21875 Z M 107.90625 -97.21875 "/></g></g></g></g></g></svg>